<?xml version="1.0" encoding="utf-8"?>
<!-- Generator: Adobe Illustrator 21.0.2, SVG Export Plug-In . SVG Version: 6.00 Build 0)  -->
<svg version="1.1" id="Layer_1" xmlns="http://www.w3.org/2000/svg" xmlns:xlink="http://www.w3.org/1999/xlink" x="0px" y="0px"
	 viewBox="0 0 50 50" style="enable-background:new 0 0 50 50;" xml:space="preserve">
<g>
	<g>
		<g id="facebook_1_">
			<g>
				<path d="M36.1,3l-6.7,0c0,0-0.1,0-0.4,0c-1.4,0-8.3,0.4-10.2,7.8c0,0.1-0.7,1.9-0.7,6.3h-6.3c-0.6,0-1,0.5-1,1V24
					c0,0.6,0.5,1,1,1h6.9v21c0,0.6,0.5,1,1,1h7.9c0.6,0,1-0.5,1-1V25h7c0.6,0,1-0.5,1-1v-5.8c0-0.6-0.5-1-1-1h-6.9v-2.5
					c0-1.7,1.1-3.5,4-3.5h3.3c0.6,0,1-0.5,1-1V4C37.1,3.5,36.7,3,36.1,3z"/>
			</g>
		</g>
	</g>
</g>
</svg>
