<?xml version="1.0" encoding="utf-8"?>
<!-- Generator: Adobe Illustrator 24.1.2, SVG Export Plug-In . SVG Version: 6.00 Build 0)  -->
<svg version="1.1" id="Layer_1" xmlns="http://www.w3.org/2000/svg" xmlns:xlink="http://www.w3.org/1999/xlink" x="0px" y="0px"
	 viewBox="0 0 50 50" style="enable-background:new 0 0 50 50;" xml:space="preserve">
<g>
	<path d="M25.3,4c-5.6,0-6.3,0-8.5,0.1s-3.7,0.4-5,1c-1.4,0.5-2.5,1.2-3.7,2.4s-1.9,2.3-2.4,3.7c-0.5,1.3-0.9,2.8-1,5
		s-0.1,2.9-0.1,8.5s0,6.3,0.1,8.5s0.4,3.7,1,5c0.5,1.4,1.2,2.5,2.4,3.7c1.1,1.1,2.3,1.9,3.7,2.4c1.3,0.5,2.8,0.9,5,1
		s2.9,0.1,8.5,0.1s6.3,0,8.5-0.1s3.7-0.5,5-1c1.4-0.5,2.5-1.2,3.7-2.4c1.1-1.1,1.9-2.3,2.4-3.7c0.5-1.3,0.9-2.8,1-5s0.1-2.9,0.1-8.5
		s0-6.3-0.1-8.5s-0.5-3.7-1-5c-0.5-1.4-1.2-2.5-2.4-3.7c-1.1-1.1-2.3-1.9-3.7-2.4c-1.3-0.5-2.8-0.9-5-1C31.6,4,30.9,4,25.3,4z
		 M25.3,7.7c5.5,0,6.2,0,8.4,0.1c2,0.1,3.1,0.4,3.8,0.7c1,0.4,1.7,0.8,2.4,1.5s1.2,1.4,1.5,2.4c0.3,0.7,0.6,1.8,0.7,3.8
		c0.1,2.2,0.1,2.8,0.1,8.4s0,6.2-0.1,8.4c-0.1,2-0.4,3.1-0.7,3.8c-0.4,1-0.8,1.7-1.5,2.4s-1.4,1.2-2.4,1.5c-0.7,0.3-1.8,0.6-3.8,0.7
		c-2.2,0.1-2.8,0.1-8.4,0.1c-5.5,0-6.2,0-8.4-0.1c-2-0.1-3.1-0.4-3.9-0.7c-1-0.4-1.7-0.8-2.4-1.5s-1.2-1.4-1.5-2.4
		C8.9,36.1,8.5,35,8.4,33c-0.1-2.2-0.1-2.8-0.1-8.3s0-6.2,0.1-8.4c0.1-2,0.4-3.1,0.7-3.8c0.4-1,0.8-1.7,1.6-2.4
		c0.7-0.7,1.4-1.2,2.4-1.5c0.7-0.3,1.8-0.6,3.8-0.7C19.1,7.7,19.7,7.7,25.3,7.7L25.3,7.7z M25.3,14.1c-5.9,0-10.6,4.8-10.6,10.6
		c0,5.9,4.8,10.6,10.6,10.6c5.9,0,10.6-4.8,10.6-10.6C35.9,18.8,31.2,14.1,25.3,14.1z M25.3,31.6c-3.8,0-6.9-3.1-6.9-6.9
		s3.1-6.9,6.9-6.9s6.9,3.1,6.9,6.9S29.1,31.6,25.3,31.6z M38.8,13.6c0,1.4-1.1,2.5-2.5,2.5s-2.5-1.1-2.5-2.5s1.1-2.5,2.5-2.5
		C37.7,11.2,38.8,12.3,38.8,13.6z"/>
</g>
</svg>
